<svg width="107" height="106" viewBox="0 0 107 106" fill="none" xmlns="http://www.w3.org/2000/svg">
<path d="M69.6562 72.5C66.1562 80 60.6562 86 58.6562 88.5H60.9202C61.0754 88.5 61.2276 88.4672 61.3589 88.3843C63.124 87.2698 67.5747 82.0619 69.6562 79.5C74.1563 72 72.1562 62.5 69.6562 60C67.6563 58 62.6562 56.5 56.1562 55.5C49.6562 54.5 36.1562 56.5 30.1562 58.5C32.1562 56.1 31.9896 51.5 31.6562 49.5C28.9682 55.6441 21.1498 61.6653 17.1372 63.7591C16.8379 63.9153 16.6283 64.2012 16.5889 64.5366C16.2998 66.9919 16.203 70.177 17.6563 70.5C21.8956 71.4421 30.2768 72.3842 36.1107 73.3262C36.6789 73.418 37.2099 73.0175 37.2734 72.4455L37.4471 70.8823C37.5644 69.8265 36.8383 68.8531 35.8151 68.5678C32.2504 67.5737 26.8221 65.4171 27.6562 65C28.4562 64.6 36.6562 62.6667 40.6562 62C43.4562 61.2 53.3229 60.1667 58.6562 61C63.9896 61.8333 72.9925 65.3509 69.6562 72.5Z" fill="#4EC3FF" stroke="#4EC3FF"/>
<path d="M61.7256 25.0156V89H53.376V25.0156H61.7256ZM82.292 25.0156V31.959H32.8535V25.0156H82.292Z" fill="#2E9AD8"/>
<circle cx="53.6562" cy="53" r="51" stroke="#52B1E4" stroke-width="4"/>
</svg>
